<mxfile host="app.diagrams.net" agent="Mozilla/5.0 (Macintosh; Intel Mac OS X 10_15_7) AppleWebKit/605.1.15 (KHTML, like Gecko) Version/17.2 Safari/605.1.15" version="24.7.14">
  <diagram name="Page-1" id="w8DIjSaGjGSUctJUXL1z">
    <mxGraphModel dx="1194" dy="797" grid="1" gridSize="10" guides="1" tooltips="1" connect="1" arrows="1" fold="1" page="1" pageScale="1" pageWidth="827" pageHeight="1169" math="0" shadow="0">
      <root>
        <mxCell id="0" />
        <mxCell id="1" parent="0" />
        <mxCell id="zNazfuQA-Nyw-nOPOAFD-6" style="edgeStyle=orthogonalEdgeStyle;rounded=0;orthogonalLoop=1;jettySize=auto;html=1;entryX=0;entryY=0.5;entryDx=0;entryDy=0;" edge="1" parent="1" source="zNazfuQA-Nyw-nOPOAFD-1" target="zNazfuQA-Nyw-nOPOAFD-5">
          <mxGeometry relative="1" as="geometry" />
        </mxCell>
        <mxCell id="zNazfuQA-Nyw-nOPOAFD-1" value="User" style="rounded=1;whiteSpace=wrap;html=1;" vertex="1" parent="1">
          <mxGeometry x="40" y="260" width="120" height="60" as="geometry" />
        </mxCell>
        <mxCell id="zNazfuQA-Nyw-nOPOAFD-2" value="Encrypt&lt;div&gt;Decrypt&lt;/div&gt;" style="shape=process;whiteSpace=wrap;html=1;backgroundOutline=1;" vertex="1" parent="1">
          <mxGeometry x="510" y="270" width="130" height="60" as="geometry" />
        </mxCell>
        <mxCell id="zNazfuQA-Nyw-nOPOAFD-3" value="" style="strokeWidth=2;html=1;shape=mxgraph.flowchart.database;whiteSpace=wrap;" vertex="1" parent="1">
          <mxGeometry x="740" y="370" width="60" height="60" as="geometry" />
        </mxCell>
        <mxCell id="zNazfuQA-Nyw-nOPOAFD-4" style="edgeStyle=orthogonalEdgeStyle;rounded=0;orthogonalLoop=1;jettySize=auto;html=1;entryX=0.5;entryY=0;entryDx=0;entryDy=0;entryPerimeter=0;" edge="1" parent="1" source="zNazfuQA-Nyw-nOPOAFD-2" target="zNazfuQA-Nyw-nOPOAFD-3">
          <mxGeometry relative="1" as="geometry" />
        </mxCell>
        <mxCell id="zNazfuQA-Nyw-nOPOAFD-7" style="edgeStyle=orthogonalEdgeStyle;rounded=0;orthogonalLoop=1;jettySize=auto;html=1;entryX=0;entryY=0.5;entryDx=0;entryDy=0;exitX=0.5;exitY=1;exitDx=0;exitDy=0;" edge="1" parent="1" source="zNazfuQA-Nyw-nOPOAFD-5" target="zNazfuQA-Nyw-nOPOAFD-2">
          <mxGeometry relative="1" as="geometry" />
        </mxCell>
        <mxCell id="zNazfuQA-Nyw-nOPOAFD-5" value="Phone" style="rounded=0;whiteSpace=wrap;html=1;" vertex="1" parent="1">
          <mxGeometry x="320" y="130" width="120" height="60" as="geometry" />
        </mxCell>
        <mxCell id="zNazfuQA-Nyw-nOPOAFD-8" value="" style="endArrow=none;dashed=1;html=1;rounded=0;entryX=0.5;entryY=1;entryDx=0;entryDy=0;" edge="1" parent="1" target="zNazfuQA-Nyw-nOPOAFD-2">
          <mxGeometry width="50" height="50" relative="1" as="geometry">
            <mxPoint x="575" y="530" as="sourcePoint" />
            <mxPoint x="440" y="390" as="targetPoint" />
          </mxGeometry>
        </mxCell>
        <mxCell id="zNazfuQA-Nyw-nOPOAFD-9" value="" style="endArrow=none;dashed=1;html=1;rounded=0;exitX=0.5;exitY=0;exitDx=0;exitDy=0;" edge="1" parent="1" source="zNazfuQA-Nyw-nOPOAFD-2">
          <mxGeometry width="50" height="50" relative="1" as="geometry">
            <mxPoint x="574.5" y="250" as="sourcePoint" />
            <mxPoint x="575" y="100" as="targetPoint" />
          </mxGeometry>
        </mxCell>
      </root>
    </mxGraphModel>
  </diagram>
</mxfile>
